<svg class="diagram-root" style="background: #f5f6f6" xmlns="http://www.w3.org/2000/svg" xmlns:xlink="http://www.w3.org/1999/xlink"><style>.diagram-root { font-family: "Helvetica Neue", sans-serif; font-size: 12px; } .t { overflow: visible; } .t-bg { y: 40; fill: #fff;   } .th { fill: #005aa0;   } .tht { fill: #fff; font-size: 14px;  } .tf { fill: #323c46; overflow: visible; } .tf.pk { fill: #005aa0; font-weight: bold; } .tf.fk { font-weight: bold; } .ty { fill: #adb1b5; font-weight: normal; text-anchor: end; } .r { fill: transparent; stroke: #c3c3c3; stroke-width: 1; } .l { stroke: 1; } .i { fill: #c2c7ce; stroke: #c2c7ce; } .i.ix { fill: #afb3b6; stroke: #000; } .fa { fill: transparent; overflow: visible; } .fa .bg.hover { fill: #f7f7f7; } .c { cy: 12; r: 4; stroke: #d2d2dc; fill: #d2d2dc; } .hr { fill: transparent; stroke: #323c46; stroke-opacity: 0.035; stroke-width: 13; } .dc { stroke: #fa5a3c; fill: #fa5a3c; } .x { stroke: white; stroke-width: 1; } .hl .th { fill: #1b9bff; } .hl .tht {  } .fhl .bg { fill: #e7f4ff; } .fhls .bg {  } .r.hl { stroke: #1b9bff; } .dim { opacity: 0.25; }</style><g class="drawing-wrapper" transform="translate(215.7499999999999, 293.3333333333333) scale(1,1)"><g class="rs"><path d="M -16.03 249.08 m -1, 0 a 1,1 0 1,0 2,0 a 1,1 0 1,0 -2,0 M -16.03 249.08 m -0.5, 0 a 0.5,0.5 0 1,0 1,0 a 0.5,0.5 0 1,0 -1,0  M-16.03 249.08 L-16.03 249.08 -4.030000000000001 249.08 M-10.030000000000001 255.08 L-10.030000000000001 255.08 -10.030000000000001 243.08 M-4.030000000000001 249.08 Q 18.98 249.08, 41.99 21.38 T 88 -206.32999999999998 M 100 -206.32999999999998 m -1, 0 a 1,1 0 1,0 2,0 a 1,1 0 1,0 -2,0 M 100 -206.32999999999998 m -0.5, 0 a 0.5,0.5 0 1,0 1,0 a 0.5,0.5 0 1,0 -1,0  M100 -206.32999999999998 L100 -206.32999999999998 88 -206.32999999999998 M94 -200.32999999999998 L94 -200.32999999999998 94 -212.32999999999998" id="h1950675103" class="r"></path><path d="M 315.96 319.38 m -1, 0 a 1,1 0 1,0 2,0 a 1,1 0 1,0 -2,0 M 315.96 319.38 m -0.5, 0 a 0.5,0.5 0 1,0 1,0 a 0.5,0.5 0 1,0 -1,0  M315.96 319.38 L315.96 319.38 303.96 319.38 M309.96 325.38 L309.96 325.38 309.96 313.38 M303.96 319.38 Q 226.96 319.38, 149.96 284.23 T -4.030000000000001 249.08 M -16.03 249.08 m -1, 0 a 1,1 0 1,0 2,0 a 1,1 0 1,0 -2,0 M -16.03 249.08 m -0.5, 0 a 0.5,0.5 0 1,0 1,0 a 0.5,0.5 0 1,0 -1,0  M-16.03 249.08 L-16.03 249.08 -4.030000000000001 249.08 M-10.030000000000001 255.08 L-10.030000000000001 255.08 -10.030000000000001 243.08" id="h1607168654" class="r"></path><path d="M 100 -181.32999999999998 m -1, 0 a 1,1 0 1,0 2,0 a 1,1 0 1,0 -2,0 M 100 -181.32999999999998 m -0.5, 0 a 0.5,0.5 0 1,0 1,0 a 0.5,0.5 0 1,0 -1,0  M100 -181.32999999999998 L100 -181.32999999999998 88 -181.32999999999998 M94 -175.32999999999998 L94 -175.32999999999998 94 -187.32999999999998 M88 -181.32999999999998 C 38 -181.32999999999998, -53.23600000000002 -46.150000000000006, 240.06 -46.150000000000006 M 252.06 -46.150000000000006 m -1, 0 a 1,1 0 1,0 2,0 a 1,1 0 1,0 -2,0 M 252.06 -46.150000000000006 m -0.5, 0 a 0.5,0.5 0 1,0 1,0 a 0.5,0.5 0 1,0 -1,0  M252.06 -46.150000000000006 L252.06 -46.150000000000006 240.06 -46.150000000000006 M246.06 -40.150000000000006 L246.06 -40.150000000000006 246.06 -52.150000000000006" id="h2286254435" class="r"></path><path d="M 402.78 -46.150000000000006 m -1, 0 a 1,1 0 1,0 2,0 a 1,1 0 1,0 -2,0 M 402.78 -46.150000000000006 m -0.5, 0 a 0.5,0.5 0 1,0 1,0 a 0.5,0.5 0 1,0 -1,0  M402.78 -46.150000000000006 L402.78 -46.150000000000006 414.78 -46.150000000000006 M408.78 -40.150000000000006 L408.78 -40.150000000000006 408.78 -52.150000000000006 M414.78 -46.150000000000006 C 564.892 -46.150000000000006, 527.35 294.38, 477.35 294.38 M 465.35 294.38 m -1, 0 a 1,1 0 1,0 2,0 a 1,1 0 1,0 -2,0 M 465.35 294.38 m -0.5, 0 a 0.5,0.5 0 1,0 1,0 a 0.5,0.5 0 1,0 -1,0  M465.35 294.38 L465.35 294.38 477.35 294.38 M471.35 300.38 L471.35 300.38 471.35 288.38" id="h211156328" class="r"></path><path d="M 252.06 -21.150000000000006 m -1, 0 a 1,1 0 1,0 2,0 a 1,1 0 1,0 -2,0 M 252.06 -21.150000000000006 m -0.5, 0 a 0.5,0.5 0 1,0 1,0 a 0.5,0.5 0 1,0 -1,0  M252.06 -21.150000000000006 L252.06 -21.150000000000006 240.06 -21.150000000000006 M246.06 -15.150000000000006 L246.06 -15.150000000000006 246.06 -27.150000000000006 M240.06 -21.150000000000006 Q 169.79 -21.150000000000006, 99.51 18.76 T -41.05 58.67 M -53.05 58.67 m -1, 0 a 1,1 0 1,0 2,0 a 1,1 0 1,0 -2,0 M -53.05 58.67 m -0.5, 0 a 0.5,0.5 0 1,0 1,0 a 0.5,0.5 0 1,0 -1,0  M-53.05 58.67 L-53.05 58.67 -41.05 58.67 M-47.05 64.67 L-47.05 64.67 -47.05 52.67" id="h1537058300" class="r"></path><path d="M -1.29 -134.67 m -1, 0 a 1,1 0 1,0 2,0 a 1,1 0 1,0 -2,0 M -1.29 -134.67 m -0.5, 0 a 0.5,0.5 0 1,0 1,0 a 0.5,0.5 0 1,0 -1,0  M-1.29 -134.67 L-1.29 -134.67 10.71 -134.67 M4.71 -128.67 L4.71 -128.67 4.71 -140.67 M10.71 -134.67 Q 68.05 -134.67, 125.39 -90.41 T 240.06 -46.150000000000006 M 252.06 -46.150000000000006 m -1, 0 a 1,1 0 1,0 2,0 a 1,1 0 1,0 -2,0 M 252.06 -46.150000000000006 m -0.5, 0 a 0.5,0.5 0 1,0 1,0 a 0.5,0.5 0 1,0 -1,0  M252.06 -46.150000000000006 L252.06 -46.150000000000006 240.06 -46.150000000000006 M246.06 -40.150000000000006 L246.06 -40.150000000000006 246.06 -52.150000000000006" id="h3177548053" class="r"></path></g><g class="hrs"></g><g class="ts"><svg width="149.39" height="100" x="-165.42" y="192.08" id="h475896179" class="t"><rect height="40" width="149.39" class="th"></rect><text x="13" y="25" class="tht">departments</text><rect height="60" width="149.39" class="t-bg" y="40"></rect><text x="13" y="61" class="tf pk">dept_no<tspan x="136.39" class="ty">varchar</tspan></text><path d="M7,14A2,2 0 0,1 5,12A2,2 0 0,1 7,10A2,2 0 0,1 9,12A2,2 0 0,1 7,14M12.65,10C11.83,7.67 9.61,6 7, 6A6, 6 0 0, 0 1, 12A6, 6 0 0, 0 7, 18C9.61, 18 11.83, 16.33 12.65, 14H17V18H21V14H23V10H12.65Z" class="i pk" transform="translate(76.37632812499999, 48) scale(0.65)"></path><text x="13" y="86" class="tf">dept_name<tspan x="136.39" class="ty">varchar</tspan></text></svg><svg width="149.39" height="100" x="315.96" y="237.38" id="h1090417462" class="t"><rect height="40" width="149.39" class="th"></rect><text x="13" y="25" class="tht">dept_emp</text><rect height="60" width="149.39" class="t-bg" y="40"></rect><text x="13" y="61" class="tf pk">emp_no<tspan x="136.39" class="ty">int</tspan></text><path d="M7,14A2,2 0 0,1 5,12A2,2 0 0,1 7,10A2,2 0 0,1 9,12A2,2 0 0,1 7,14M12.65,10C11.83,7.67 9.61,6 7, 6A6, 6 0 0, 0 1, 12A6, 6 0 0, 0 7, 18C9.61, 18 11.83, 16.33 12.65, 14H17V18H21V14H23V10H12.65Z" class="i pk" transform="translate(103.71617187499999, 48) scale(0.65)"></path><text x="13" y="86" class="tf pk">dept_no<tspan x="136.39" class="ty">varchar</tspan></text><path d="M7,14A2,2 0 0,1 5,12A2,2 0 0,1 7,10A2,2 0 0,1 9,12A2,2 0 0,1 7,14M12.65,10C11.83,7.67 9.61,6 7, 6A6, 6 0 0, 0 1, 12A6, 6 0 0, 0 7, 18C9.61, 18 11.83, 16.33 12.65, 14H17V18H21V14H23V10H12.65Z" class="i pk" transform="translate(76.37632812499999, 73) scale(0.65)"></path></svg><svg width="129.39" height="100" x="100" y="-263.33" id="h1676682957" class="t"><rect height="40" width="129.39" class="th"></rect><text x="13" y="25" class="tht">dept_manager</text><rect height="60" width="129.39" class="t-bg" y="40"></rect><text x="13" y="61" class="tf fk">dept_no<tspan x="116.38999999999999" class="ty">varchar</tspan></text><text x="13" y="86" class="tf pk">emp_no<tspan x="116.38999999999999" class="ty">int</tspan></text><path d="M7,14A2,2 0 0,1 5,12A2,2 0 0,1 7,10A2,2 0 0,1 9,12A2,2 0 0,1 7,14M12.65,10C11.83,7.67 9.61,6 7, 6A6, 6 0 0, 0 1, 12A6, 6 0 0, 0 7, 18C9.61, 18 11.83, 16.33 12.65, 14H17V18H21V14H23V10H12.65Z" class="i pk" transform="translate(83.71617187499999, 73) scale(0.65)"></path></svg><svg width="150.72" height="225" x="252.06" y="-103.15" id="h1639608377" class="t"><rect height="40" width="150.72" class="th"></rect><text x="13" y="25" class="tht">employees</text><rect height="185" width="150.72" class="t-bg" y="40"></rect><text x="13" y="61" class="tf pk">emp_no<tspan x="137.72" class="ty">int</tspan></text><path d="M7,14A2,2 0 0,1 5,12A2,2 0 0,1 7,10A2,2 0 0,1 9,12A2,2 0 0,1 7,14M12.65,10C11.83,7.67 9.61,6 7, 6A6, 6 0 0, 0 1, 12A6, 6 0 0, 0 7, 18C9.61, 18 11.83, 16.33 12.65, 14H17V18H21V14H23V10H12.65Z" class="i pk" transform="translate(105.046171875, 48) scale(0.65)"></path><text x="13" y="86" class="tf fk">emp_title_id<tspan x="137.72" class="ty">varchar</tspan></text><text x="13" y="111" class="tf">birth_date<tspan x="137.72" class="ty">date</tspan></text><text x="13" y="136" class="tf">first_name<tspan x="137.72" class="ty">varchar</tspan></text><text x="13" y="161" class="tf">last_name<tspan x="137.72" class="ty">varchar</tspan></text><text x="13" y="186" class="tf">sex<tspan x="137.72" class="ty">varchar</tspan></text><text x="13" y="211" class="tf">hire_date<tspan x="137.72" class="ty">date</tspan></text></svg><svg width="122.04" height="100" x="-123.33" y="-191.67" id="h2472833127" class="t"><rect height="40" width="122.04" class="th"></rect><text x="13" y="25" class="tht">salaries</text><rect height="60" width="122.04" class="t-bg" y="40"></rect><text x="13" y="61" class="tf pk">emp_no<tspan x="109.04" class="ty">int</tspan></text><path d="M7,14A2,2 0 0,1 5,12A2,2 0 0,1 7,10A2,2 0 0,1 9,12A2,2 0 0,1 7,14M12.65,10C11.83,7.67 9.61,6 7, 6A6, 6 0 0, 0 1, 12A6, 6 0 0, 0 7, 18C9.61, 18 11.83, 16.33 12.65, 14H17V18H21V14H23V10H12.65Z" class="i pk" transform="translate(76.366171875, 48) scale(0.65)"></path><text x="13" y="86" class="tf">salary<tspan x="109.04" class="ty">int</tspan></text></svg><svg width="140.7" height="100" x="-193.75" y="1.67" id="h311790747" class="t"><rect height="40" width="140.7" class="th"></rect><text x="13" y="25" class="tht">titles</text><rect height="60" width="140.7" class="t-bg" y="40"></rect><text x="13" y="61" class="tf pk">title_id<tspan x="127.69999999999999" class="ty">varchar</tspan></text><path d="M7,14A2,2 0 0,1 5,12A2,2 0 0,1 7,10A2,2 0 0,1 9,12A2,2 0 0,1 7,14M12.65,10C11.83,7.67 9.61,6 7, 6A6, 6 0 0, 0 1, 12A6, 6 0 0, 0 7, 18C9.61, 18 11.83, 16.33 12.65, 14H17V18H21V14H23V10H12.65Z" class="i pk" transform="translate(67.68632812499999, 48) scale(0.65)"></path><text x="13" y="86" class="tf">title<tspan x="127.69999999999999" class="ty">varchar</tspan></text></svg></g></g><text class="qdbd-link" x="10" y="20">www.quickdatabasediagrams.com</text></svg>